<svg xmlns="http://www.w3.org/2000/svg" viewBox="0 0 64 64">
  <defs>
    <style>
      .key-bg { fill: #1e293b; }
      .key-border { fill: #334155; }
      .mandala { fill: none; stroke: #f59e0b; stroke-width: 1.5; stroke-linecap: round; }
      .mandala-center { fill: #fbbf24; }
    </style>
  </defs>

  <!-- Keyboard key background -->
  <rect class="key-border" x="4" y="4" width="56" height="56" rx="8"/>
  <rect class="key-bg" x="6" y="6" width="52" height="52" rx="6"/>

  <!-- Mandala design (centered) -->
  <g transform="translate(32, 32)">
    <!-- Outer ring -->
    <circle class="mandala" r="18"/>

    <!-- 8-pointed star pattern -->
    <path class="mandala" d="M 0,-18 L 0,-12 M 0,18 L 0,12 M -18,0 L -12,0 M 18,0 L 12,0"/>
    <path class="mandala" d="M -12.7,-12.7 L -9,-9 M 12.7,12.7 L 9,9 M -12.7,12.7 L -9,9 M 12.7,-12.7 L 9,-9"/>

    <!-- Middle ring -->
    <circle class="mandala" r="12"/>

    <!-- Petals -->
    <circle class="mandala" cx="0" cy="-12" r="3"/>
    <circle class="mandala" cx="8.5" cy="-8.5" r="3"/>
    <circle class="mandala" cx="12" cy="0" r="3"/>
    <circle class="mandala" cx="8.5" cy="8.5" r="3"/>
    <circle class="mandala" cx="0" cy="12" r="3"/>
    <circle class="mandala" cx="-8.5" cy="8.5" r="3"/>
    <circle class="mandala" cx="-12" cy="0" r="3"/>
    <circle class="mandala" cx="-8.5" cy="-8.5" r="3"/>

    <!-- Inner ring -->
    <circle class="mandala" r="6"/>

    <!-- Center point -->
    <circle class="mandala-center" r="2.5"/>
    <circle class="mandala" r="2.5"/>
  </g>
</svg>
